<svg width="10" height="16" viewBox="0 0 10 16" fill="none" xmlns="http://www.w3.org/2000/svg">
<g id="&#244;&#128;&#134;&#137;">
<path id="&#244;&#128;&#134;&#137;_2" d="M0 8C0 7.76959 0.0829493 7.5576 0.258065 7.3917L7.56682 0.239631C7.7235 0.0829493 7.92627 0 8.1659 0C8.64516 0 9.01382 0.359447 9.01382 0.83871C9.01382 1.06912 8.91244 1.28111 8.76498 1.43779L2.0553 8L8.76498 14.5622C8.91244 14.7189 9.01382 14.9217 9.01382 15.1613C9.01382 15.6406 8.64516 16 8.1659 16C7.92627 16 7.7235 15.9171 7.56682 15.7512L0.258065 8.60829C0.0829493 8.43318 0 8.23041 0 8Z" fill="white" fill-opacity="0.92"/>
</g>
</svg>
