<svg width="16" height="16" viewBox="0 0 16 16" fill="none" xmlns="http://www.w3.org/2000/svg">
<g id="google logo" clip-path="url(#clip0_2500_1362)">
<path id="Vector" d="M15.6263 8.14945C15.6263 7.49394 15.5731 7.01559 15.458 6.51953H7.97266V9.47819H12.3664C12.2778 10.2135 11.7995 11.3208 10.7364 12.0648L10.7215 12.1639L13.0883 13.9973L13.2522 14.0137C14.7581 12.6229 15.6263 10.5766 15.6263 8.14945Z" fill="#4285F4"/>
<path id="Vector_2" d="M7.97272 15.945C10.1253 15.945 11.9324 15.2363 13.2523 14.0139L10.7365 12.065C10.0633 12.5345 9.15972 12.8623 7.97272 12.8623C5.86445 12.8623 4.07507 11.4716 3.43721 9.54932L3.34372 9.55726L0.882769 11.4618L0.850586 11.5513C2.16161 14.1556 4.85456 15.945 7.97272 15.945Z" fill="#34A853"/>
<path id="Vector_3" d="M3.43701 9.54936C3.2687 9.0533 3.1713 8.52176 3.1713 7.97257C3.1713 7.42332 3.2687 6.89184 3.42815 6.39577L3.42369 6.29013L0.931908 4.35498L0.850382 4.39376C0.310046 5.47449 0 6.68811 0 7.97257C0 9.25703 0.310046 10.4706 0.850382 11.5513L3.43701 9.54936Z" fill="#FBBC05"/>
<path id="Vector_4" d="M7.97272 3.08269C9.46976 3.08269 10.4796 3.72934 11.0554 4.26974L13.3054 2.07285C11.9236 0.788397 10.1253 0 7.97272 0C4.85456 0 2.16161 1.78937 0.850586 4.39371L3.42836 6.39573C4.07507 4.47347 5.86445 3.08269 7.97272 3.08269Z" fill="#EB4335"/>
</g>
<defs>
<clipPath id="clip0_2500_1362">
<rect width="16" height="16" fill="white"/>
</clipPath>
</defs>
</svg>
